<svg width="9" height="11" viewBox="0 0 9 11" fill="none" xmlns="http://www.w3.org/2000/svg">
<path id="Vector" d="M8.5441 6.04791L1.71543 10.7759C1.61537 10.8451 1.49826 10.8857 1.37681 10.8931C1.25535 10.9005 1.13418 10.8746 1.02642 10.8181C0.918674 10.7615 0.828434 10.6766 0.765514 10.5725C0.702584 10.4683 0.669354 10.3489 0.669434 10.2272V0.772583C0.669354 0.650903 0.702584 0.531513 0.765514 0.427373C0.828434 0.323223 0.918674 0.238283 1.02642 0.181763C1.13418 0.125243 1.25535 0.0992827 1.37681 0.106713C1.49826 0.114143 1.61537 0.154673 1.71543 0.223913L8.5441 4.95191C8.6327 5.01327 8.705 5.09517 8.755 5.19061C8.805 5.28604 8.8311 5.39218 8.8311 5.49991C8.8311 5.60765 8.805 5.71378 8.755 5.80922C8.705 5.90465 8.6327 5.98656 8.5441 6.04791Z" fill="white"/>
</svg>
